/vscmnt/brussel_pixiu_data/_data_brussel/112/vsc11236/PredSimResults/SUBJ10mtu3D/worker3.mot
version=1
nRows=4
nColumns=50
inDegrees=yes
endheader
                time	         pelvis_tilt	         pelvis_list	     pelvis_rotation	           pelvis_tx	           pelvis_ty	           pelvis_tz	       hip_flexion_r	     hip_adduction_r	      hip_rotation_r	        knee_angle_r	       ankle_angle_r	         mtp_angle_r	       hip_flexion_l	     hip_adduction_l	      hip_rotation_l	        knee_angle_l	       ankle_angle_l	         mtp_angle_l	    lumbar_extension	      lumbar_bending	     lumbar_rotation	 ercspn_r/activation	 intobl_r/activation	 extobl_r/activation	    abd_r/activation	    add_r/activation	hamstrings_r/activation	bifemsh_r/activation	glut_max_r/activation	iliopsoas_r/activation	rect_fem_r/activation	  vasti_r/activation	gastroc_r/activation	 soleus_r/activation	tib_ant_r/activation	 ercspn_l/activation	 intobl_l/activation	 extobl_l/activation	    abd_l/activation	    add_l/activation	hamstrings_l/activation	bifemsh_l/activation	glut_max_l/activation	iliopsoas_l/activation	rect_fem_l/activation	  vasti_l/activation	gastroc_l/activation	 soleus_l/activation	tib_ant_l/activation	
          1.10951229	         -4.23195317	         -1.01832567	          8.03307911	          1.34250987	          0.82282592	         -0.01278709	         32.40782976	         -1.78487113	         -5.40853401	        -10.13716601	          6.21754290	          0.25065689	        -16.39488019	         -0.60109343	          5.48293207	         -5.98164619	          8.23547069	         26.30180666	         -6.75262104	         -0.50035196	         -3.92157931	          0.11656376	          0.15763120	          0.01000039	          0.01485627	          0.09336440	          0.09617873	          0.25428657	          0.01793609	          0.06462191	          0.01000110	          0.01000052	          0.01000028	          0.01000008	          0.27638033	          0.07442789	          0.01000006	          0.01000016	          0.06291896	          0.01001363	          0.02229804	          0.17571347	          0.03886057	          0.36905082	          0.01000106	          0.01000017	          0.28446753	          0.22888817	          0.02365095	
          1.12060741	         -4.26959507	         -0.94018962	          7.99552645	          1.35827909	          0.82156456	         -0.01266591	         32.09424172	         -1.51774173	         -4.50014146	        -11.26945297	          5.90089120	          0.24892296	        -16.35953967	         -0.50643153	          4.98194184	         -7.97580004	          7.55163209	         28.01766403	         -6.53452732	         -0.09929609	         -4.20495832	          0.09975207	          0.14465574	          0.01000032	          0.01253782	          0.13288865	          0.08116923	          0.21460610	          0.07484592	          0.05453701	          0.01000044	          0.01000005	          0.01663557	          0.01184967	          0.29028142	          0.11337639	          0.01000009	          0.01000017	          0.05309982	          0.05730990	          0.02260340	          0.14829164	          0.03279601	          0.35846112	          0.01000218	          0.01191652	          0.24007371	          0.21852395	          0.01995998	
          1.13170253	         -4.29562452	         -0.87222000	          7.90927741	          1.37432828	          0.82047098	         -0.01246747	         31.61461357	         -1.25033704	         -3.56265025	        -12.29899272	          5.48797102	          0.24452891	        -16.20537442	         -0.41618241	          4.42780426	        -10.21487598	          6.73713976	         29.62710882	         -6.29802892	          0.32214911	         -4.47194158	          0.10225874	          0.12340746	          0.01000022	          0.05619188	          0.12247981	          0.06850247	          0.18111497	          0.11213172	          0.04602597	          0.01000017	          0.01000003	          0.01403946	          0.01000044	          0.37075116	          0.12786748	          0.01000005	          0.01000018	          0.04481305	          0.04836643	          0.01907702	          0.12514928	          0.02767787	          0.33533131	          0.01000214	          0.01451281	          0.20260777	          0.20224744	          0.01684503	
          1.14279766	         -4.31122607	         -0.80738718	          7.77057754	          1.39045011	          0.81967212	         -0.01216758	         31.07164024	         -0.97418311	         -2.71236644	        -13.19874214	          4.91638393	          0.23542570	        -15.88088511	         -0.32435507	          3.81898371	        -12.75197990	          5.78655536	         31.01330286	         -6.06625537	          0.75086410	         -4.71511920	          0.10785869	          0.10414851	          0.01000021	          0.10023337	          0.15087176	          0.05781209	          0.15285030	          0.13538445	          0.03884316	          0.01000030	          0.01214526	          0.01184853	          0.01000018	          0.41495158	          0.15346433	          0.01000005	          0.01000017	          0.03781952	          0.04081884	          0.01611007	          0.10561853	          0.02335848	          0.32034302	          0.01000193	          0.01404216	          0.17098876	          0.18560500	          0.01421620	
